<svg viewBox="0 0 47 49" fill="none" xmlns="http://www.w3.org/2000/svg"><path d="M5.37 22.36v3.11h-.38v-.25c-.06.1-.1.18-.17.21a.34.34 0 01-.21.06.4.4 0 01-.38-.24 1.9 1.9 0 01-.12-.77c0-.16.01-.3.03-.43a.83.83 0 01.09-.3c.04-.09.09-.14.15-.17a.4.4 0 01.23-.06c.09 0 .15.02.21.06.03.01.06.04.08.07a.3.3 0 01.07.11v-1.43h.4v.03zM4.5 24.5c0 .25.02.42.06.53.03.1.1.15.2.15s.15-.05.18-.15c.05-.11.06-.28.06-.51 0-.24-.01-.4-.06-.52-.04-.1-.1-.15-.18-.15-.1 0-.15.05-.2.15-.04.08-.06.27-.06.5zM6 22.77c.07 0 .13.03.17.07a.22.22 0 010 .34.26.26 0 01-.18.07.26.26 0 01-.18-.07.22.22 0 010-.34c.05-.05.1-.07.18-.07zm-.19.81h.38v1.9h-.38v-1.9zM6.63 23.58h.38v.24c.06-.1.14-.17.2-.21a.46.46 0 01.26-.07v.36H7.4c-.14 0-.25.03-.3.1-.05.07-.08.18-.08.33v1.16h-.38v-1.91h-.02zM8.53 24.83h.35c-.03.45-.23.67-.6.67a.63.63 0 01-.3-.06.48.48 0 01-.2-.18c-.04-.08-.09-.18-.12-.3-.03-.13-.03-.27-.03-.43 0-.34.05-.59.16-.75.1-.17.25-.24.47-.24.4 0 .62.33.62 1v.04H8c0 .4.09.61.26.61.2.02.27-.1.27-.36zm-.01-.48a1.2 1.2 0 00-.08-.4.18.18 0 00-.17-.1.18.18 0 00-.16.1c-.04.06-.07.2-.08.4h.49zM10.1 23.6v.37a.28.28 0 00-.2-.08c-.21 0-.32.2-.32.62 0 .45.1.67.32.67.06 0 .12-.03.2-.07v.33a.6.6 0 01-.3.07c-.42 0-.63-.32-.63-.96 0-.34.05-.6.15-.75.1-.16.26-.23.47-.23.11-.03.22 0 .3.04zM10.46 23.04h.38v.53h.22v.27h-.22v1.63h-.38v-1.63h-.21v-.27h.21v-.53zM11.51 22.77c.08 0 .14.03.19.07a.22.22 0 010 .34.26.26 0 01-.19.07.26.26 0 01-.18-.07.22.22 0 010-.34.25.25 0 01.18-.07zm-.18.81h.38v1.9h-.38v-1.9zM13.39 24.54c0 .64-.22.96-.66.96-.44 0-.65-.32-.65-.97 0-.66.21-1 .65-1 .1 0 .22.02.3.06.07.05.14.1.19.19.06.08.1.18.12.3.03.14.05.3.05.46zm-.4 0c0-.25-.01-.42-.06-.51-.03-.1-.1-.16-.2-.16-.09 0-.15.06-.2.16-.03.1-.06.26-.06.51s.02.42.06.51c.05.1.11.16.2.16.1 0 .15-.04.2-.14.03-.13.06-.3.06-.53zM13.73 23.58h.39v.22a.5.5 0 01.42-.25c.17 0 .29.06.37.18.04.07.06.2.06.4v1.36h-.38v-1.27a.63.63 0 00-.05-.28c-.03-.05-.09-.08-.17-.08a.24.24 0 00-.1.03.18.18 0 00-.08.07.61.61 0 00-.04.12c-.02.06-.02.11-.02.18v1.23h-.38v-1.91h-.02zM17.45 22.36v3.11h-.38v-.25c-.06.1-.1.18-.17.21a.34.34 0 01-.21.06.4.4 0 01-.38-.24 1.9 1.9 0 01-.12-.77c0-.16.01-.3.03-.43a.83.83 0 01.09-.3c.04-.09.09-.14.15-.17a.4.4 0 01.23-.06c.09 0 .15.02.21.06.03.01.06.04.08.07a.3.3 0 01.07.11v-1.43h.4v.03zm-.87 2.15c0 .25.02.42.06.53.03.1.1.15.2.15s.15-.05.18-.15c.05-.11.06-.28.06-.51 0-.24-.01-.4-.06-.52-.04-.1-.1-.15-.18-.15-.1 0-.15.05-.2.15-.04.08-.06.27-.06.5zM18.68 24.83h.35c-.03.45-.23.67-.61.67a.63.63 0 01-.29-.06.48.48 0 01-.2-.18c-.04-.08-.09-.18-.12-.3-.03-.13-.03-.27-.03-.43 0-.34.05-.59.15-.75.1-.17.26-.24.47-.24.41 0 .63.33.63 1v.04h-.89c0 .4.1.61.26.61.2.02.28-.1.28-.36zm-.02-.48a1.2 1.2 0 00-.07-.4.18.18 0 00-.17-.1.18.18 0 00-.17.1c-.03.06-.06.2-.07.4h.48zM20.2 23.62v.34a.48.48 0 00-.29-.1l-.1.01a.34.34 0 00-.07.04l-.04.07c-.02.03-.02.06-.02.09 0 .1.1.2.28.32l.18.14c.04.04.09.08.1.12a.6.6 0 01.08.3c0 .16-.06.3-.17.4-.1.1-.25.15-.42.15a.74.74 0 01-.34-.08v-.34c.11.07.22.11.32.11.19 0 .26-.08.26-.23a.26.26 0 00-.04-.16l-.08-.07c-.03-.02-.08-.05-.12-.1-.17-.1-.28-.2-.34-.28a.48.48 0 01-.09-.3c0-.15.05-.27.15-.37.11-.1.25-.14.41-.14.11 0 .22.03.34.08zM22.25 23.62v.34a.48.48 0 00-.29-.1l-.09.01a.34.34 0 00-.07.04c-.02.02-.05.05-.05.07-.02.03-.02.06-.02.09 0 .1.1.2.28.32l.18.14c.05.04.1.08.1.12a.6.6 0 01.08.3c0 .16-.06.3-.16.4-.11.1-.26.15-.43.15a.74.74 0 01-.33-.08v-.34c.1.07.2.11.31.11.19 0 .26-.08.26-.23a.26.26 0 00-.04-.16l-.08-.07-.12-.1c-.17-.1-.27-.2-.33-.28a.48.48 0 01-.1-.3c0-.15.05-.27.16-.37.1-.1.24-.14.4-.14.11 0 .23.03.34.08zM23.47 24.83h.35c-.03.45-.23.67-.6.67a.63.63 0 01-.3-.06.48.48 0 01-.2-.18c-.04-.08-.09-.18-.12-.3-.03-.13-.03-.27-.03-.43 0-.34.05-.59.15-.75.11-.17.26-.24.48-.24.4 0 .62.33.62 1v.04h-.88c0 .4.09.61.26.61.18.02.27-.1.27-.36zm-.03-.48c-.02-.2-.05-.34-.08-.4a.18.18 0 00-.16-.1.18.18 0 00-.17.1c-.03.06-.06.2-.08.4h.49zM24.17 23.58h.38v.24c.06-.1.14-.17.2-.21a.46.46 0 01.26-.07v.36h-.06c-.14 0-.25.03-.3.1-.05.07-.08.18-.08.33v1.16h-.38v-1.91h-.02zM25.17 23.58h.41l.16.6c.03.12.06.25.07.39.02.14.05.29.05.44l.01-.07.05-.27c.01-.12.04-.27.1-.5l.14-.59h.37l-.55 1.9h-.26l-.55-1.9zM26.95 22.77c.08 0 .14.03.19.07a.22.22 0 010 .34.26.26 0 01-.19.07.26.26 0 01-.18-.07.22.22 0 010-.34.25.25 0 01.18-.07zm-.18.81h.38v1.9h-.38v-1.9zM28.44 23.6v.37a.28.28 0 00-.2-.08c-.2 0-.31.2-.31.62 0 .45.1.67.32.67.06 0 .12-.03.2-.07v.33a.6.6 0 01-.31.07c-.41 0-.62-.32-.62-.96 0-.34.04-.6.15-.75.1-.16.26-.23.47-.23.1-.03.21 0 .3.04zM29.57 24.83h.35c-.03.45-.23.67-.6.67a.62.62 0 01-.3-.06.48.48 0 01-.2-.18c-.04-.08-.09-.18-.12-.3-.03-.13-.03-.27-.03-.43 0-.34.05-.59.16-.75.1-.17.25-.24.47-.24.4 0 .62.33.62 1v.04h-.88c0 .4.09.61.26.61.2.02.27-.1.27-.36zm-.01-.48a1.2 1.2 0 00-.08-.4.18.18 0 00-.17-.1.18.18 0 00-.17.1c-.03.06-.06.2-.07.4h.49zM31.09 23.62v.34a.48.48 0 00-.29-.1l-.1.01a.34.34 0 00-.07.04l-.04.07c-.02.03-.02.06-.02.09 0 .1.1.2.28.32l.18.14c.04.04.09.08.1.12a.6.6 0 01.08.3c0 .16-.06.3-.17.4-.1.1-.25.15-.42.15a.74.74 0 01-.34-.08v-.34c.11.07.22.11.32.11.19 0 .26-.08.26-.23a.26.26 0 00-.04-.16l-.08-.07c-.03-.02-.08-.05-.12-.1-.17-.1-.28-.2-.34-.28a.48.48 0 01-.09-.3c0-.15.05-.27.15-.37.11-.1.25-.14.41-.14.11 0 .22.03.34.08zM11.24 26.15v3.12h-.38v-.25c-.06.1-.1.18-.17.2a.34.34 0 01-.21.06.4.4 0 01-.38-.23 1.9 1.9 0 01-.12-.77c0-.17.01-.3.03-.43a.83.83 0 01.09-.3c.04-.09.09-.14.15-.17a.4.4 0 01.23-.06c.09 0 .15.02.21.06.03.01.06.04.08.07a.3.3 0 01.07.1v-1.4h.4zm-.87 2.16c0 .25.02.42.06.53.03.1.11.15.2.15.1 0 .15-.05.18-.15.05-.11.06-.28.06-.52 0-.23-.01-.4-.06-.51-.04-.1-.1-.15-.18-.15-.09 0-.15.05-.2.15-.04.08-.06.25-.06.5zM12.47 28.63h.35c-.03.45-.22.67-.6.67a.63.63 0 01-.3-.06.48.48 0 01-.2-.18c-.04-.08-.08-.18-.11-.3-.03-.13-.03-.27-.03-.44 0-.33.04-.58.15-.75.1-.16.26-.23.47-.23.41 0 .62.33.62 1v.04h-.88c0 .4.1.61.26.61.2 0 .27-.11.27-.36zm-.01-.5a1.2 1.2 0 00-.08-.39.18.18 0 00-.16-.11.18.18 0 00-.17.11c-.03.06-.06.2-.08.39h.49zm.2-1.55l-.41.5-.22-.1.34-.56.29.16zM13.19 30.05v-2.69h.38v.25c.06-.1.1-.18.16-.22a.4.4 0 01.23-.05c.17 0 .3.08.38.23.08.17.12.42.12.77 0 .33-.04.58-.12.72-.07.15-.21.22-.38.22a.34.34 0 01-.21-.05.18.18 0 01-.08-.07.3.3 0 01-.07-.11v.99h-.41zm.86-1.73c0-.26-.01-.43-.06-.52-.03-.1-.1-.16-.2-.16-.09 0-.15.06-.18.16s-.06.26-.06.51.02.42.06.51c.05.1.1.16.18.16.1 0 .16-.06.2-.16.05-.08.06-.25.06-.5zM16 27.36v1.91h-.38v-.25c-.06.1-.1.18-.16.2a.34.34 0 01-.22.06.4.4 0 01-.38-.23 1.9 1.9 0 01-.12-.77c0-.33.05-.57.12-.72a.4.4 0 01.38-.24c.15 0 .3.09.38.25v-.2H16zm-.86.95c0 .25.01.42.06.53.03.1.1.15.2.15.09 0 .15-.05.18-.15.04-.11.06-.28.06-.52 0-.23-.02-.4-.06-.51-.05-.1-.11-.15-.19-.15-.09 0-.15.05-.2.15-.04.08-.05.25-.05.5zM16.44 27.36h.38v.24c.06-.1.14-.17.2-.2a.46.46 0 01.26-.08v.36h-.06c-.14 0-.24.03-.29.1-.06.07-.1.18-.1.33v1.16h-.37v-1.9h-.02zM17.66 26.84h.38v.52h.21v.28h-.2v1.63h-.39v-1.63h-.21v-.28h.21v-.52zM19.33 28.63h.35c-.03.45-.22.67-.6.67a.62.62 0 01-.3-.06.48.48 0 01-.2-.18c-.04-.08-.08-.18-.11-.3-.03-.13-.03-.27-.03-.44 0-.33.04-.58.15-.75.1-.16.26-.23.47-.23.41 0 .62.33.62 1v.04h-.88c0 .4.1.61.26.61.2 0 .27-.1.27-.36zm-.01-.5a1.2 1.2 0 00-.08-.39.18.18 0 00-.16-.11.18.18 0 00-.17.11c-.03.06-.06.2-.08.39h.49zM20.05 27.36h.38v.24c.1-.18.24-.26.42-.26.2 0 .32.08.4.26.1-.18.24-.26.44-.26.15 0 .26.04.33.1.08.08.13.19.13.31v1.52h-.38v-1.25a.66.66 0 00-.05-.3c-.03-.05-.08-.06-.17-.06-.09 0-.15.02-.18.08s-.05.14-.05.3v1.24h-.4v-1.25-.16a.24.24 0 00-.04-.12l-.06-.05c-.03-.02-.06-.02-.1-.02-.1 0-.16.03-.19.09a.6.6 0 00-.06.28v1.25h-.38v-1.94h-.04zM23.36 28.63h.35c-.03.45-.23.67-.6.67a.63.63 0 01-.3-.06.48.48 0 01-.2-.18c-.04-.08-.08-.18-.11-.3-.03-.13-.03-.27-.03-.44 0-.33.04-.58.15-.75.1-.16.26-.23.47-.23.41 0 .62.33.62 1v.04h-.88c0 .4.1.61.26.61.2 0 .27-.1.27-.36zm-.03-.5a1.2 1.2 0 00-.07-.39.18.18 0 00-.17-.11.18.18 0 00-.17.11c-.03.06-.06.2-.07.39h.48zM24.08 27.36h.38v.23a.5.5 0 01.43-.25c.16 0 .28.05.36.18.05.07.06.2.06.4v1.35h-.38V28a.63.63 0 00-.04-.27c-.04-.06-.1-.09-.17-.09-.05 0-.08.02-.1.03a.18.18 0 00-.08.07.6.6 0 00-.05.13c-.02.05-.02.1-.02.18v1.22h-.38v-1.9h-.01zM25.78 26.84h.38v.52h.22v.28h-.22v1.63h-.38v-1.63h-.21v-.28h.21v-.52zM27.83 27.36v1.91h-.38v-.25c-.06.1-.1.18-.16.2a.34.34 0 01-.22.06.4.4 0 01-.38-.23 1.9 1.9 0 01-.12-.77c0-.33.05-.57.12-.72a.4.4 0 01.38-.24c.16 0 .3.09.38.25v-.2h.38zm-.86.95c0 .25.01.42.06.53.03.1.1.15.2.15.09 0 .15-.05.18-.15.04-.11.06-.28.06-.52 0-.23-.02-.4-.06-.51-.05-.1-.1-.15-.18-.15-.1 0-.16.05-.2.15a1.6 1.6 0 00-.06.5zM28.28 27.36h.38v1.27c0 .11.01.2.06.25.03.06.09.07.18.07.1 0 .15-.03.18-.07.03-.04.05-.13.05-.24V27.35h.38v1.14c0 .26-.02.45-.06.53-.1.18-.28.26-.56.26-.23 0-.39-.05-.48-.15-.09-.1-.13-.28-.13-.51v-1.26zM29.75 27.36h.46l.18.37c.02.04.05.08.06.13l.05.16.04-.14.05-.13.03-.05.15-.34h.41l-.47.9.56 1.01h-.45l-.18-.36a1.3 1.3 0 01-.16-.4c-.01.1-.06.22-.12.37l-.18.4h-.4l.52-1-.55-.92zM1.26 29.94v3.11H.88v-.25c-.06.1-.1.18-.17.21a.34.34 0 01-.2.06.4.4 0 01-.39-.24 1.9 1.9 0 01-.12-.76c0-.17.02-.31.03-.44a.83.83 0 01.1-.3c.04-.09.08-.14.14-.17a.4.4 0 01.23-.05c.1 0 .15.01.21.05.04.02.07.04.08.07a.3.3 0 01.08.11v-1.43h.4v.03zM.4 32.1c0 .25.01.41.06.53.03.1.1.15.2.15.09 0 .15-.06.18-.15.04-.12.06-.28.06-.52s-.02-.4-.06-.51c-.05-.1-.11-.16-.19-.16-.09 0-.15.06-.2.16-.04.07-.05.25-.05.5zM2.51 32.41h.35c-.03.45-.23.67-.6.67a.63.63 0 01-.3-.05.48.48 0 01-.2-.19c-.04-.08-.09-.18-.12-.3-.03-.13-.03-.27-.03-.43 0-.34.05-.59.16-.75.1-.17.25-.24.47-.24.4 0 .62.33.62 1v.04h-.88c0 .4.09.62.26.62.18 0 .27-.12.27-.37zm-.03-.48c-.01-.2-.04-.34-.08-.4a.18.18 0 00-.16-.1.18.18 0 00-.17.1c-.03.06-.06.2-.08.4h.5zM4.06 29.94h.38v3.11h-.38v-3.11zM5.13 30.13l.33.09-.4 1-.2-.06.27-1.03zM6.63 32.41H7c-.03.45-.23.67-.61.67a.62.62 0 01-.3-.05.48.48 0 01-.19-.19c-.04-.08-.1-.18-.12-.3-.03-.13-.03-.27-.03-.43 0-.34.04-.59.15-.75.1-.17.26-.24.47-.24.41 0 .63.33.63 1v.04H6.1c0 .4.1.62.26.62.18 0 .26-.12.26-.37zm-.01-.48a1.2 1.2 0 00-.08-.4.18.18 0 00-.17-.1.18.18 0 00-.17.1c-.03.06-.06.2-.07.4h.49zm.2-1.56l-.42.5-.21-.11.33-.56.3.17zM8.53 29.94v3.11h-.38v-.25c-.06.1-.1.18-.17.21a.34.34 0 01-.2.06.4.4 0 01-.39-.24 1.9 1.9 0 01-.12-.76c0-.17.01-.31.03-.44a.83.83 0 01.1-.3c.04-.09.08-.14.14-.17a.4.4 0 01.23-.05c.1 0 .15.01.21.05l.08.07a.3.3 0 01.08.11v-1.43h.4v.03zm-.87 2.17c0 .25.02.41.07.53.03.1.1.15.2.15.08 0 .15-.06.18-.15.04-.12.06-.28.06-.52s-.02-.4-.06-.51c-.05-.1-.11-.16-.19-.16-.09 0-.15.06-.2.16-.03.07-.06.25-.06.5zM8.97 31.16h.38v1.27c0 .1.02.2.07.25.03.05.09.07.18.07s.15-.03.18-.07c.03-.04.05-.13.05-.24V31.16h.38v1.14c0 .27-.02.45-.06.53-.1.18-.28.27-.57.27-.23 0-.38-.06-.47-.16-.09-.1-.14-.28-.14-.51v-1.27zM11.5 31.19v.36a.28.28 0 00-.2-.08c-.21 0-.32.2-.32.62 0 .45.1.67.32.67.06 0 .12-.03.2-.07v.34a.6.6 0 01-.3.06c-.42 0-.63-.32-.63-.96 0-.34.04-.6.15-.75.1-.16.26-.23.47-.23.1-.02.2 0 .3.04zM13 31.16v1.9h-.38v-.24c-.06.1-.1.18-.16.2a.34.34 0 01-.22.06.4.4 0 01-.38-.24 1.9 1.9 0 01-.12-.76c0-.33.05-.57.12-.72a.4.4 0 01.38-.24c.15 0 .3.08.38.25v-.2H13zm-.86.95c0 .25.01.41.06.53.03.1.1.15.2.15.09 0 .15-.06.18-.15.04-.12.06-.28.06-.52s-.02-.4-.06-.51c-.05-.1-.1-.16-.19-.16s-.15.06-.2.16c-.04.07-.05.25-.05.5zM13.49 30.63h.38v.53h.21v.28h-.21v1.63h-.38v-1.63h-.21v-.28h.21v-.53zM14.54 30.36c.08 0 .14.02.19.07a.22.22 0 010 .33.26.26 0 01-.19.07.26.26 0 01-.18-.07.22.22 0 010-.34c.05-.05.1-.06.18-.06zm-.18.8h.38v1.9h-.38v-1.9zM16.4 32.12c0 .64-.22.96-.66.96-.44 0-.65-.32-.65-.97 0-.66.21-.99.65-.99.11 0 .22.01.3.06.07.04.14.1.19.18.06.08.1.18.12.3.03.14.05.3.05.46zm-.4 0c0-.25-.01-.42-.06-.51-.03-.1-.1-.16-.2-.16-.09 0-.15.06-.2.16-.02.1-.06.26-.06.51s.02.42.07.52c.04.1.1.15.2.15.08 0 .15-.04.2-.14.04-.13.05-.3.05-.53zM16.76 31.16h.38v.22a.5.5 0 01.43-.25c.17 0 .29.06.36.18.05.07.07.2.07.4v1.36h-.38V31.8a.63.63 0 00-.05-.28c-.03-.05-.1-.08-.17-.08-.04 0-.07.01-.1.03a.18.18 0 00-.08.07.6.6 0 00-.05.12l-.01.18v1.23h-.38v-1.9h-.02zM19.27 31.16h.38v.22a.5.5 0 01.43-.25c.16 0 .29.06.36.18.05.07.06.2.06.4v1.36h-.38V31.8a.63.63 0 00-.04-.28c-.03-.05-.1-.08-.17-.08a.24.24 0 00-.1.03.18.18 0 00-.08.07.6.6 0 00-.05.12l-.01.18v1.23h-.38v-1.9h-.02zM22.11 31.16v1.9h-.38v-.24c-.06.1-.1.18-.16.2a.34.34 0 01-.22.06.4.4 0 01-.38-.24 1.9 1.9 0 01-.12-.76c0-.33.05-.57.12-.72a.4.4 0 01.38-.24c.16 0 .3.08.38.25v-.2h.38zm-.86.95c0 .25.01.41.06.53.03.1.1.15.2.15.09 0 .15-.06.18-.15.04-.12.06-.28.06-.52s-.02-.4-.06-.51c-.05-.1-.1-.16-.18-.16-.1 0-.16.06-.2.16-.03.07-.06.25-.06.5zM22.6 30.63h.38v.53h.22v.28h-.22v1.63h-.38v-1.63h-.21v-.28h.21v-.53zM23.65 30.36c.08 0 .14.02.19.07a.22.22 0 010 .33.26.26 0 01-.19.07.26.26 0 01-.18-.07.22.22 0 010-.34c.05-.05.1-.06.18-.06zm-.18.8h.38v1.9h-.38v-1.9zM25.5 32.12c0 .64-.2.96-.65.96-.44 0-.65-.32-.65-.97 0-.66.21-.99.65-.99.11 0 .22.01.3.06.07.04.14.1.2.18a1.48 1.48 0 01.17.77zm-.39 0c0-.25-.01-.42-.06-.51-.03-.1-.1-.16-.2-.16-.09 0-.15.06-.2.16-.02.1-.05.26-.05.51s.01.42.06.52c.04.1.1.15.2.15.09 0 .15-.04.2-.14.04-.13.05-.3.05-.53zM25.87 31.16h.38v.22a.5.5 0 01.43-.25c.17 0 .29.06.37.18.04.07.06.2.06.4v1.36h-.38V31.8a.63.63 0 00-.05-.28c-.03-.05-.1-.08-.17-.08-.04 0-.07.01-.1.03a.18.18 0 00-.08.07.6.6 0 00-.04.12c-.02.06-.02.11-.02.18v1.23h-.38v-1.9h-.02zM28.72 31.16v1.9h-.38v-.24c-.06.1-.1.18-.17.2a.34.34 0 01-.21.06.4.4 0 01-.38-.24 1.9 1.9 0 01-.12-.76c0-.33.04-.57.12-.72a.4.4 0 01.38-.24c.15 0 .29.08.38.25v-.2h.38zm-.87.95c0 .25.02.41.06.53.03.1.1.15.2.15s.15-.06.18-.15c.05-.12.06-.28.06-.52s-.01-.4-.06-.51c-.04-.1-.1-.16-.18-.16-.1 0-.15.06-.2.16-.03.07-.06.25-.06.5zM29.16 29.94h.38v3.11h-.38v-3.11zM30.79 32.41h.35c-.03.45-.23.67-.61.67a.62.62 0 01-.3-.05.48.48 0 01-.19-.19c-.04-.08-.09-.18-.12-.3-.03-.13-.03-.27-.03-.43 0-.34.05-.59.15-.75.1-.17.26-.24.47-.24.41 0 .63.33.63 1v.04h-.87c0 .4.1.62.26.62.17 0 .26-.12.26-.37zm-.03-.48a1.2 1.2 0 00-.08-.4.18.18 0 00-.17-.1.18.18 0 00-.16.1c-.03.06-.06.2-.08.4h.49zM20.76 34.01h.44l.2.62.01.05c0 .03.02.04.03.07.08.22.13.4.16.56.03-.16.04-.27.06-.32l.06-.25.03-.1.17-.64h.44l-.54 1.61v1.23h-.4V35.6l-.66-1.6zM22.37 34.95h.41l.16.6c.03.12.06.24.07.38.02.14.05.3.05.45l.01-.07.05-.28c.01-.11.04-.26.1-.49l.14-.6h.37l-.55 1.91h-.26l-.55-1.9zM24.76 36.21h.35c-.03.45-.23.67-.6.67a.62.62 0 01-.3-.06.48.48 0 01-.2-.18c-.04-.08-.08-.18-.11-.3-.04-.13-.04-.27-.04-.43 0-.34.05-.59.16-.76.1-.16.26-.23.47-.23.4 0 .62.33.62 1v.04h-.88c0 .4.1.61.26.61.18 0 .27-.1.27-.36zm-.03-.5a1.2 1.2 0 00-.07-.39.18.18 0 00-.17-.11.18.18 0 00-.17.11c-.03.06-.06.2-.07.39h.48zM25.46 33.74h.38v3.11h-.38v-3.11zM26.47 34.14c.07 0 .13.03.18.07a.22.22 0 010 .33.26.26 0 01-.18.07.26.26 0 01-.19-.07.22.22 0 010-.33.3.3 0 01.19-.07zm-.19.8h.38v1.91h-.38v-1.9zM27.1 34.95h.39v.22a.5.5 0 01.42-.25c.17 0 .29.05.37.18.04.07.06.2.06.4v1.35h-.38V35.6a.63.63 0 00-.05-.28c-.03-.06-.09-.09-.17-.09a.23.23 0 00-.1.03.18.18 0 00-.08.07.61.61 0 00-.04.13c-.02.05-.02.1-.02.18v1.22h-.38v-1.9h-.02zM29.57 36.21h.35c-.03.45-.23.67-.6.67a.62.62 0 01-.3-.06.48.48 0 01-.2-.18c-.04-.08-.09-.18-.12-.3-.03-.13-.03-.27-.03-.43 0-.34.05-.59.16-.76.1-.16.25-.23.47-.23.4 0 .62.33.62 1v.04h-.88c0 .4.09.61.26.61.2 0 .27-.1.27-.36zm-.01-.5a1.2 1.2 0 00-.08-.39.18.18 0 00-.17-.11.18.18 0 00-.17.11c-.03.06-.06.2-.07.39h.49zM31.09 34.99v.33a.48.48 0 00-.29-.1c-.03 0-.06 0-.1.02l-.07.04c-.01.01-.04.04-.04.07-.02.03-.02.05-.02.08 0 .1.1.2.28.32l.18.14c.04.04.09.09.1.13a.6.6 0 01.08.29c0 .17-.06.3-.17.4-.1.1-.25.16-.42.16a.74.74 0 01-.34-.09v-.33c.11.07.22.1.32.1.19.01.26-.07.26-.23a.26.26 0 00-.04-.15l-.08-.07-.12-.1c-.17-.1-.28-.2-.34-.29a.48.48 0 01-.09-.3c0-.14.05-.27.15-.37.11-.1.25-.14.41-.14.11 0 .22.03.34.09z" fill="#164194"/><path d="M26.3 13.8c0 5.16 4.6 9.36 10.23 9.36 5.65 0 10.24-4.2 10.24-9.36 0-5.16-4.6-9.36-10.24-9.36-5.64 0-10.23 4.2-10.23 9.36zm2.17 0c0-4.06 3.62-7.37 8.06-7.37 4.45 0 8.07 3.3 8.07 7.37 0 4.06-3.62 7.37-8.07 7.37-4.44 0-8.06-3.3-8.06-7.37z" fill="#FBBA07"/><path d="M26.3 13.8h.23a8.74 8.74 0 002.93 6.47 10.48 10.48 0 007.08 2.68c2.75 0 5.26-1.02 7.07-2.68a8.77 8.77 0 002.93-6.47 8.77 8.77 0 00-2.93-6.47 10.48 10.48 0 00-7.07-2.68c-2.77 0-5.27 1.03-7.08 2.68a8.77 8.77 0 00-2.93 6.47h-.46c0-5.27 4.69-9.57 10.47-9.57C42.3 4.23 47 8.51 47 13.8c0 5.27-4.68 9.57-10.46 9.57-5.77 0-10.45-4.28-10.47-9.57h.23zm2.17 0h-.22c0-4.17 3.7-7.57 8.27-7.58 4.56 0 8.29 3.4 8.29 7.58 0 4.17-3.71 7.57-8.29 7.57-4.56 0-8.27-3.4-8.27-7.57h.45c0 1.98.88 3.77 2.3 5.06a8.2 8.2 0 005.54 2.1 8.2 8.2 0 005.53-2.1 6.86 6.86 0 002.3-5.06c0-1.97-.88-3.77-2.3-5.06a8.2 8.2 0 00-5.53-2.1A8.2 8.2 0 0031 8.74a6.86 6.86 0 00-2.3 5.06h-.23z" fill="#FFDD9A"/><path d="M37.07.2h4.09L38.2 3.07h-2.33L37.07.21z" fill="#FBBA07"/><path d="M37.07.2V0h4.6L38.3 3.26h-2.74L36.91 0h.16v.2l.2.08-1.06 2.57h1.9L40.63.4h-3.57V.2l.2.08-.2-.07z" fill="#FFDD9A"/><path d="M32.83 8.74h7.48v2.28h-4.63v1.47H40v2.28h-4.32v1.48h4.61v2.28h-7.46v-9.8z" fill="#FBBA07"/><path d="M32.83 8.74v-.21h7.7v2.68l-4.63.02v1.05h4.32v2.7H35.9v1.06h4.62v2.7H32.6V8.53h.23v.2h.2v9.6h7.05v-1.89h-4.62v-1.87h4.32v-1.88h-4.32V10.8h4.62V8.93h-7.25v-.2h.2-.2z" fill="#FFDD9A"/><path d="M13.39 12.45h-1.05c-.3 0-.53-.2-.53-.46v-1.68c0-.25.22-.46.53-.46h.53v-.47h-.94V8.9h.94c.29 0 .53.21.53.46v3.1h-.01zM12.34 12h.53v-1.68h-.53v1.68zM15.9 11.8c0 .37-.36.68-.8.68-.44 0-.79-.3-.79-.68V9.56c0-.38.35-.7.8-.7.43 0 .78.3.78.7v.26h-.53v-.46h-.53V12h.53v-.46h.53v.27zM18.39 12.45h-1.05c-.29 0-.53-.2-.53-.46v-1.68c0-.25.23-.46.53-.46h.53v-.47h-.94V8.9h.94c.3 0 .54.21.54.46v3.1h-.02zM17.34 12h.53v-1.68h-.53v1.68zM20.88 12.45h-1.05c-.28 0-.53-.2-.53-.46V9.36c0-.25.23-.46.53-.46h.54v-.87h.53v4.42h-.02zM19.83 12h.54V9.36h-.54V12zM21.81 9.56c0-.38.35-.7.8-.7.44 0 .78.3.78.7v1.35h-1.04v1.08h.53v-.46h.53v.27c0 .37-.35.7-.8.7-.43 0-.78-.31-.78-.7V9.56h-.02zm1.52-1.37l-1.46.49v-.43l1.46-.49v.43zm-1 2.26h.53V9.36h-.53v1.09zM24.3 8.9h2.12c.29 0 .53.21.53.46v3.1h-.53v-3.1h-.53v3.1h-.53v-3.1h-.54v3.1h-.53V8.9h.02zM28.38 8.49h-.53v-.46h.53v.46zm0 4a.56.56 0 01-.36-.14.39.39 0 01-.16-.32V8.9h.54v3.6h-.02zM29.31 9.56c0-.38.35-.7.8-.7.43 0 .78.3.78.7v1.35h-1.05v1.08h.54v-.46h.53v.27c0 .37-.35.7-.8.7-.43 0-.78-.31-.78-.7V9.56h-.02zm.53.89h.54V9.36h-.54v1.09zM10.87 13.87h.54l.22 2.17c.04.28.07.56.1 1.11h.01c.02-.57.06-.83.1-1.11l.22-2.17h.53l-.6 4.42h-.5l-.62-4.42zM13.39 15.4c0-.38.35-.68.79-.68.44 0 .79.3.79.68v1.35h-1.05v1.08h.53v-.45h.53v.26c0 .38-.35.68-.79.68-.44 0-.79-.3-.79-.68V15.4h-.01zm.51.9h.54v-1.1h-.54v1.1zM15.88 15.2c0-.25.23-.45.53-.45h.53v.45h-.53v3.1h-.53v-3.1zM18.72 15.2h-.53v1.1h.53c.3 0 .54.2.54.45v.89c0 .38-.35.68-.8.68-.44 0-.79-.3-.79-.68v-.26h.54v.45h.53v-1.08h-.53c-.3 0-.54-.2-.54-.46v-.89c0-.38.35-.68.8-.68.44 0 .79.3.79.68v.26h-.54v-.45zM21.67 18.3h-1.05c-.28 0-.53-.22-.53-.47v-1.7c0-.24.23-.45.53-.45h.54v-.48h-.95v-.45h.95c.29 0 .53.2.53.45v3.1h-.02zm-1.05-.47h.54v-1.7h-.54v1.7zM23.12 14.33h-.53v-.46h.53v.46zm0 4a.56.56 0 01-.36-.13.39.39 0 01-.16-.32v-3.13h.54v3.59h-.02zM24.05 13.83c.14 0 .27.05.36.14.11.08.16.2.16.32v4h-.54v-4.46h.02zM25.5 13.83c.13 0 .27.05.36.14.1.08.15.2.15.32v4h-.53v-4.46h.01zM26.94 15.4c0-.38.35-.68.79-.68.44 0 .79.3.79.68v1.35h-1.05v1.08H28v-.45h.53v.26c0 .38-.35.68-.79.68-.44 0-.79-.3-.79-.68V15.4h-.01zm.53.9H28v-1.1h-.53v1.1zM30.42 15.2h-.53v1.1h.53c.29 0 .53.2.53.45v.89c0 .38-.35.68-.79.68-.44 0-.79-.3-.79-.68v-.26h.53v.45h.53v-1.08h-.53c-.29 0-.53-.2-.53-.46v-.89c0-.38.35-.68.8-.68.43 0 .78.3.78.68v.26h-.53v-.45z" fill="#164194"/><path d="M30.92 40.65H15.9v4.65h15.03v-4.65z" fill="#fff"/><path d="M16.7 48.56c-.06 0-.1 0-.12-.02l-.14-.16c-.05-.08-.1-.16-.17-.23H16.21v.17c0 .08 0 .12.02.15l.09.05v.04h-.4v-.04l.08-.02.03-.07V48c0-.17 0-.21-.02-.25l-.09-.06v-.04H16.38c.1 0 .17.01.21.04.06.04.1.11.1.18 0 .11-.08.21-.22.25l.15.21.14.17.06.03v.04l-.12-.02zm-.38-.86l-.1.02v.33h.07c.12 0 .2-.07.2-.18.01-.08-.07-.17-.17-.17zM17.19 47.73l-.06-.03.12-.16.13.02-.2.17zm.27.8c-.02.02-.03.04-.1.04h-.48v-.03c.06 0 .08-.03.1-.09V48c0-.05 0-.08-.02-.1l-.08-.05v-.03h.58V48h-.05c-.01-.08-.04-.1-.2-.1h-.08v.24h.06c.12 0 .16-.01.18-.08h.04v.22h-.04c0-.07-.03-.08-.17-.08h-.06v.2l.05.08h.09c.13 0 .18-.03.21-.11l.05.01-.08.17zM17.98 48.22h-.03l-.03-.06c.12-.01.18-.05.18-.14 0-.08-.06-.15-.17-.15h-.04v.4l.01.21.08.04v.03H17.64v-.03c.06 0 .08-.03.1-.08V47.99c0-.05 0-.08-.02-.1l-.08-.05v-.03H17.98c.18 0 .27.09.27.21.02.1-.1.2-.27.2zM19.1 47.86l-.01.08V48.27c0 .09-.02.13-.05.17-.06.08-.15.11-.27.11a.33.33 0 01-.2-.05c-.1-.06-.12-.12-.12-.24v-.21-.17c0-.04-.03-.05-.1-.05v-.03H18.7v.03l-.08.03-.01.08v.2c0 .2 0 .24.05.27a.2.2 0 00.13.06c.08 0 .17-.04.18-.11.02-.05.02-.09.02-.21v-.11c0-.13 0-.17-.02-.18l-.06-.05v-.02h.25v.02l-.05.05zM19.86 48.5c-.06.04-.12.05-.24.05H19.3v-.03c.06 0 .08-.03.1-.08v-.37c0-.12 0-.16-.02-.19l-.08-.04v-.03H19.71c.12 0 .21.06.21.17 0 .08-.06.14-.18.17.14.02.2.1.2.2 0 .06-.03.1-.08.14zm-.27-.65h-.06v.26h.06c.12 0 .2-.05.2-.13a.2.2 0 00-.2-.13zm0 .32h-.08v.16c0 .07 0 .1.02.1.01.04.03.05.09.05.1 0 .17-.05.17-.15 0-.09-.08-.16-.2-.16zM20.64 48.54l-.1.01h-.45v-.03l.06-.02c.02-.03.03-.06.03-.14v-.28l-.01-.21-.08-.04v-.03H20.43v.03c-.06 0-.1.03-.1.08v.37c0 .15 0 .17.02.19l.1.01c.07 0 .1 0 .13-.03.03-.01.06-.05.08-.1l.04.02-.06.17zM21.06 48.55H20.76v-.03c.06 0 .08-.02.1-.08V47.98c0-.05 0-.08-.02-.11l-.08-.04v-.03h.34v.03c-.07 0-.08.03-.1.08v.37c0 .15 0 .16.02.2l.08.04v.03h-.04zM22.22 48.76a.73.73 0 01-.47-.2h-.1c-.24 0-.4-.15-.4-.37 0-.24.18-.4.44-.4s.42.15.42.37c0 .15-.09.3-.23.36l.14.07c.12.07.21.1.29.1l.14-.03.01.04c-.09.03-.16.06-.24.06zm-.6-.89c-.15 0-.25.11-.25.28 0 .2.12.35.29.35.15 0 .25-.12.25-.28 0-.21-.12-.35-.28-.35z" fill="#000"/><path d="M22.94 47.86l-.02.08V48.27c0 .09-.02.13-.05.17-.06.08-.15.11-.27.11a.33.33 0 01-.2-.05c-.09-.06-.12-.12-.12-.24v-.21l-.01-.17c0-.04-.03-.05-.08-.05v-.03H22.52v.03l-.07.03c-.02.01-.02.04-.02.08v.2c0 .2 0 .24.05.27a.2.2 0 00.14.06c.09 0 .16-.04.18-.11l.01-.21v-.11l-.01-.18-.06-.05v-.02H23v.02l-.06.05zM23.68 48.54c-.01.01-.03.02-.09.02h-.49v-.02c.06 0 .08-.03.1-.09V48c0-.05 0-.08-.02-.1l-.08-.05v-.03h.58V48h-.04c-.02-.08-.05-.1-.2-.1h-.1v.24h.07c.12 0 .16-.01.18-.08h.05v.22h-.05c0-.07-.05-.08-.17-.08h-.06v.2l.03.08h.1c.13 0 .18-.03.2-.11l.05.01-.06.17zM24.82 47.86c0-.1-.06-.14-.22-.14h-.11v.3h.07c.14 0 .19-.03.19-.1h.04v.27h-.04c-.02-.08-.05-.1-.2-.1h-.06v.25c0 .07.01.14.1.14v.04h-.39v-.04c.06 0 .1-.04.1-.1v-.52-.14c-.02-.05-.05-.06-.1-.06v-.04h.68v.22h-.06v.02zM25.64 48.56l-.09-.01-.1-.12-.14-.2h-.05v.16c0 .05 0 .08.02.1l.07.05v.02H25.02v-.02l.06-.03.03-.06v-.36l-.01-.2-.08-.05v-.03h.38c.1 0 .14.02.18.04.05.03.08.09.08.16 0 .1-.06.16-.18.2l.12.17.1.14.05.03v.03l-.1-.02zm-.3-.7h-.08v.29h.06c.11 0 .17-.06.17-.14-.01-.1-.07-.16-.15-.16zM26.54 48.55H26.24v-.03l.06-.05-.02-.06-.04-.11H26l-.03.07-.03.11.06.04v.03h-.24v-.03l.04-.01c.03-.02.05-.06.1-.14l.11-.26.11-.3h.08l.06.13.16.4.07.14.06.04v.03h-.02zm-.4-.56l-.09.23h.19l-.1-.23zM27.4 47.87v.68h-.08l-.25-.28c-.01-.02-.17-.2-.26-.28V48.4l.02.1.06.02v.03h-.27v-.03c.07 0 .07-.07.09-.12V47.99c0-.1 0-.1-.03-.13l-.06-.03v-.03h.2l.13.14.34.36v-.25c0-.11 0-.14-.02-.17l-.08-.05v-.03h.26v.03l-.04.04zM28.28 48.52a.68.68 0 01-.25.05l-.01.04h.03l.07.07c0 .05-.04.1-.13.1l-.08-.02.02-.04.04.01.06-.04-.03-.04-.03.01h-.03l.03-.1a.43.43 0 01-.26-.1.37.37 0 01-.12-.28c0-.24.17-.4.46-.4.09 0 .16.02.24.03v.16h-.04c-.02-.09-.1-.13-.2-.13-.17 0-.28.1-.28.28 0 .2.13.35.3.35a.2.2 0 00.2-.14l.04.01a.75.75 0 00-.03.18zM29.13 48.55H28.82v-.03l.06-.05-.01-.06-.05-.11h-.22l-.03.07-.03.11.06.04v.03h-.25v-.03l.05-.01a.64.64 0 00.09-.14l.12-.26c.03-.07.08-.2.1-.3h.1l.04.13.17.4.06.14.06.04v.03h-.01zm-.4-.56l-.09.23h.18l-.09-.23zM29.54 48.55H29.23v-.03c.06 0 .08-.02.1-.08V47.98c0-.05 0-.08-.02-.11l-.08-.04v-.03H29.57v.03c-.06 0-.08.03-.1.08v.37c0 .15 0 .16.02.2l.08.04v.03h-.03zM29.92 48.57a.65.65 0 01-.22-.05l-.01-.16h.05c.03.08.09.14.18.14s.15-.05.15-.12c0-.05-.05-.08-.1-.1l-.13-.08c-.09-.05-.14-.1-.14-.2 0-.13.11-.21.28-.21.07 0 .14.01.2.04V47.98h-.05c-.01-.08-.08-.12-.15-.12-.08 0-.14.04-.14.1 0 .06.05.09.1.13l.11.06c.11.05.16.1.16.2 0 .13-.13.22-.3.22zM30.9 48.54c0 .01-.02.02-.08.02h-.49v-.02c.06 0 .07-.03.09-.09V48c0-.05 0-.08-.02-.1l-.07-.05v-.03h.58V48h-.05c0-.08-.04-.1-.2-.1h-.09v.24h.06c.12 0 .17-.01.19-.08h.04v.22h-.04c0-.07-.04-.08-.17-.08h-.08v.2l.03.08h.1c.13 0 .18-.03.2-.11l.05.01a.88.88 0 01-.04.17zM16.37 46.62l-.08.01h-.47v-.03l.07-.02a.45.45 0 00.05-.12l.05-.2.01-.09.03-.17c0-.04-.01-.06-.07-.06v-.03H16.26v.03l-.08.02c-.03.04-.04.09-.09.3l-.01.06-.03.17v.03c0 .04.03.06.1.06.14 0 .19-.03.23-.12l.03.02c0 .07-.03.12-.04.14zM16.71 46.09l-.06-.06.08-.07.06.06-.08.07zm-.12.56l-.04-.03.01-.06.05-.18.03-.11-.02-.01-.04.01h-.02v-.03a.5.5 0 01.17-.04l.03.01c0 .02 0 .05-.03.13l-.02.07c-.03.11-.03.14-.03.17l.03.02.07-.01v.03l-.19.03zM17.25 46.6c-.05.04-.11.06-.19.06-.09 0-.15-.02-.15-.04l.02-.07.06-.25c.01-.09.03-.14.06-.24l.01-.1-.01-.01-.05.01v-.02h.02l.14-.03.03.01-.03.13-.03.14-.02.08a.4.4 0 01.2-.06c.07 0 .1.05.1.11a.5.5 0 01-.16.28zm0-.36l-.08.03-.08.05c-.01.02-.03.06-.04.13l-.03.13.07.02.13-.05c.04-.06.09-.17.09-.24l-.06-.07zM17.66 46.46h-.03v.06c0 .06.01.08.06.08a.3.3 0 00.15-.05l.02.04a.38.38 0 01-.22.07c-.07 0-.12-.04-.12-.11 0-.18.14-.34.3-.34.07 0 .11.03.11.09 0 .08-.12.16-.27.16zm.12-.22c-.06 0-.12.07-.15.18h.01c.11 0 .2-.05.2-.12l-.06-.06zM18.42 46.34h-.05v-.04l-.04-.04-.05.02c-.04.04-.06.13-.09.25l-.01.11-.11.02.03-.11.03-.1.03-.14-.01-.04h-.03l-.04.01v-.02a.43.43 0 01.16-.05l.01.02v.04c.06-.04.1-.07.14-.07l.08.03-.05.1zM18.81 46.27h-.1l-.05.22-.01.09.03.02.06-.01h.01v.03a.43.43 0 01-.17.04l-.04-.03.01-.08.03-.11.04-.17h-.07l.02-.04c.08-.02.1-.07.14-.14l.06-.02-.03.13h.1l-.03.07zM19.2 46.13l-.05-.03.15-.15.1.03-.2.15zm-.14.33h-.03v.06c0 .06.01.08.06.08a.3.3 0 00.15-.05l.02.04a.38.38 0 01-.22.07c-.07 0-.12-.04-.12-.11 0-.18.14-.34.29-.34.08 0 .12.03.12.09 0 .08-.12.16-.27.16zm.12-.22c-.06 0-.12.07-.15.18h.01c.11 0 .2-.05.2-.12l-.06-.06zM21.25 45.82l-.05-.02.15-.16.11.03-.21.15zm.23.24h-.03v-.03c0-.05-.05-.08-.17-.08h-.12c-.03.08-.05.17-.06.26H21.28l.09-.07h.03l-.05.21h-.03v-.01c0-.06-.03-.07-.13-.07h-.11l-.03.13c-.02.05-.02.1-.02.12 0 .04.02.04.11.04.15 0 .2-.03.24-.1h.04c-.04.07-.05.13-.08.16l-.08.01H20.81v-.03l.07-.02.05-.12.04-.2.02-.09.03-.16c0-.05-.02-.07-.08-.07v-.03h.55l-.01.15zM22.07 46.27h-.08l.02.07c0 .1-.1.18-.22.18l-.06-.01-.04.02c0 .02.01.02.06.03l.09.03c.1.03.14.05.14.11 0 .11-.13.2-.3.2-.13 0-.2-.05-.2-.14 0-.09.06-.13.15-.16-.06-.01-.08-.02-.08-.04 0-.03.03-.05.1-.08l-.05-.1c0-.11.09-.18.2-.18l.09.01h.15l.03.06zm-.23-.03c-.06 0-.12.07-.12.14 0 .06.03.08.07.08.06 0 .13-.05.13-.14 0-.05-.03-.08-.08-.08zm.01.45l-.13-.05c-.08.02-.14.07-.14.14 0 .06.06.1.14.1.1 0 .2-.07.2-.14l-.07-.05zM22.53 46.65c-.02 0-.04-.02-.05-.07a.55.55 0 01-.21.07c-.08 0-.11-.03-.11-.1 0-.06.03-.14.08-.21a.3.3 0 01.27-.15l.15.02v.02c-.04.12-.07.26-.07.3l.01.05.06-.02v.03a.31.31 0 01-.13.06zm-.07-.4c-.04 0-.09.02-.13.09a.43.43 0 00-.08.2l.05.06.15-.07.03-.08.05-.2h-.07zM23.06 46c-.05.14-.08.31-.12.46l-.02.1.03.03.06-.01v.02a.5.5 0 01-.16.05l-.04-.03.02-.11.1-.43.02-.12-.01-.01-.05.01v-.02a.43.43 0 01.17-.05l.03.02c-.02.01-.02.04-.03.1zM23.35 46.09l-.06-.06.07-.07.06.06-.07.07zm-.13.56l-.04-.03.01-.06.05-.18.03-.11-.01-.01-.05.01v-.03a.5.5 0 01.17-.04l.03.01c0 .02 0 .05-.03.13l-.02.07-.04.17.03.02.06-.01v.03l-.19.03zM23.82 46.27h-.1l-.05.22-.02.09.03.02.06-.01h.02v.03a.43.43 0 01-.17.04l-.05-.03.02-.08.03-.11.04-.17h-.06l.02-.04c.08-.02.1-.07.14-.14l.06-.02-.03.13h.1l-.04.07zM24.18 46.13l-.03-.03.14-.15.1.03-.2.15zm-.12.33h-.03v.06c0 .06.02.08.06.08a.3.3 0 00.15-.05l.02.04a.38.38 0 01-.21.07c-.08 0-.13-.04-.13-.11 0-.18.14-.34.3-.34.07 0 .12.03.12.09-.02.08-.13.16-.28.16zm.12-.22c-.06 0-.12.07-.15.18h.02c.1 0 .2-.05.2-.12l-.07-.06zM26.47 46.06h-.03v-.03l-.03-.05c-.02-.02-.07-.03-.16-.03h-.09l-.06.26h.08c.13 0 .15-.01.18-.08h.03l-.05.2h-.03l-.03-.05-.12-.01h-.07l-.02.07-.03.18.08.07v.03H25.83v-.03l.07-.03.05-.1c.01-.06.03-.1.04-.22l.02-.08.03-.17c0-.04-.02-.07-.08-.07v-.03h.54l-.03.17zM26.88 46.34h-.05v-.04l-.05-.04-.04.02c-.05.04-.06.13-.1.25l-.02.11-.1.02.02-.11.03-.1.03-.14-.01-.04h-.03l-.03.01v-.02a.43.43 0 01.15-.05l.01.02v.04c.05-.04.11-.07.14-.07l.08.03-.03.1zM27.35 46.65c-.02 0-.03-.02-.05-.07a.55.55 0 01-.21.07c-.08 0-.12-.03-.12-.1 0-.06.03-.14.07-.21.06-.1.14-.15.26-.15l.15.02v.02a1.3 1.3 0 00-.07.3l.01.05.06-.02v.03a.16.16 0 01-.1.06zm-.06-.4c-.05 0-.1.02-.14.09a.43.43 0 00-.08.2l.05.06.15-.07.05-.08.04-.2h-.07zM27.91 46.27h-.1l-.04.22-.01.09.01.02.06-.01h.02v.03a.43.43 0 01-.17.04l-.04-.03.01-.08.03-.11.03-.17h-.06l.02-.04c.07-.02.1-.07.13-.14l.06-.02-.03.13h.11l-.03.07zM28.15 46.46h-.03v.06c0 .06.02.08.06.08a.3.3 0 00.15-.05l.02.04a.38.38 0 01-.21.07c-.08 0-.12-.04-.12-.11 0-.18.13-.34.28-.34.08 0 .13.03.13.09-.02.08-.13.16-.28.16zm.12-.22c-.06 0-.12.07-.15.18h.02c.1 0 .2-.05.2-.12l-.07-.06zM28.9 46.34h-.05v-.04l-.04-.04-.05.02c-.04.04-.06.13-.09.25l-.03.11-.1.02.03-.11.03-.1.03-.14-.02-.04h-.03l-.03.01v-.02a.43.43 0 01.15-.05l.02.02v.04c.06-.04.1-.07.13-.07l.08.03-.03.1zM29.39 46.65l-.05-.03.02-.1.01-.04.05-.21-.03-.03-.1.03-.07.07c-.02.01-.02.04-.03.1a1.1 1.1 0 01-.05.18l-.1.01.06-.22.03-.13-.03-.04-.06.02v-.03l.15-.04c.03 0 .03.01.03.07v.01c.09-.04.18-.07.24-.07l.06.03-.03.15-.03.13-.01.07.03.02.06-.01v.03l-.15.03zM29.89 46.09l-.06-.06.07-.07.06.06-.07.07zm-.14.56l-.03-.03.01-.06.05-.18.03-.11-.01-.01-.05.01h-.02v-.03a.5.5 0 01.17-.04l.03.01c0 .02 0 .05-.03.13l-.01.07c-.03.11-.03.14-.03.17l.03.02.06-.01v.03l-.2.03zM30.36 46.27h-.1l-.05.22-.02.09.03.02.06-.01h.02v.03a.43.43 0 01-.17.04l-.05-.03.02-.08.03-.11.03-.17h-.06l.01-.04c.08-.02.11-.07.14-.14l.06-.02-.03.13h.1l-.02.07zM30.72 46.13l-.03-.03.15-.15.11.03-.23.15zm-.13.33h-.03v.06c0 .06.01.08.06.08.04 0 .09-.01.15-.05l.01.04a.38.38 0 01-.21.07c-.08 0-.12-.04-.12-.11 0-.18.14-.34.29-.34.07 0 .12.03.12.09 0 .08-.12.16-.27.16zm.12-.22c-.06 0-.12.07-.15.18h.01c.1 0 .2-.05.2-.12l-.06-.06zM25.1 46.45c.07 0 .15-.05.15-.12 0-.07-.06-.14-.16-.14-.07 0-.15.05-.15.14.02.05.08.12.15.12zM20.1 46.45c.08 0 .16-.05.16-.12 0-.07-.06-.14-.15-.14a.13.13 0 00-.14.14c-.02.05.06.12.14.12zM30.86 47.1H15.91v.06h14.95v-.07z" fill="#000"/><path d="M15.9 40.65v4.65h3.43l.49-.23c.06-.02.12.02.18 0l.1.02-.34.2h.58s.18-.1.27-.13c-.08.02-.15.05-.21.1l-.05-.02.08-.06.03.02c.36-.27.86-.2 1.29-.34l.1-.05c.07-.03.11-.07.17-.11.1-.06.17-.14.2-.24l-.01-.01c-.16.14-.32.26-.5.34-.25.12-.5.1-.77.13l.06-.03.05-.07h.03l.03-.01.05-.02c-.03-.04-.11.03-.17 0l.03-.05h.05l.03-.04c.16-.1.33-.17.48-.25l-.09.01.03-.03c.12-.02.23-.1.35-.14h-.12l.08-.02v-.03l.01-.02h-.01l.07-.04-.03-.01c.03-.04.1-.06.15-.06l-.04-.01.03-.01h-.03l-.02-.05c.08-.07.08-.16.11-.25l-.02-.01c-.12.11-.3.15-.47.2h-.06a.32.32 0 01-.2-.02l-.1-.08c-.1-.06-.18-.1-.3-.13a2.7 2.7 0 00-.87-.11c.12-.06.26-.07.4-.1.19-.05.37-.1.57-.1h-.12c-.15-.02-.32.02-.49.06-.12.02-.21.07-.33.08-.08.03-.1.09-.19.07v-.02c.13-.13.26-.25.45-.27.2-.03.4 0 .6.02.16.01.3.04.45.07.06 0 .07.08.1.1.08.02.14 0 .21.03v-.06l.16-.02c.09-.05-.08-.15-.13-.22l.02-.02c.1.07.17.16.27.21.06.03.2.06.17-.01-.06-.11-.17-.2-.26-.32v-.04l-.03-.03v-.04l-.06-.1c-.03-.05-.01-.12-.03-.2l-.04-.17-.11-.5c-.02-.2.12-.37.23-.53a.86.86 0 01.32-.34.8.8 0 01.2-.33c.12-.11.4-.22.4-.22H15.9zm4.4 4.05l-.06-.02c.02-.05.1-.05.14-.07l.08-.02.07.04c-.06.07-.15.04-.22.07zm-.36-1.05l.03.02c0 .05-.03.1-.1.1.1.02.2.02.28.07h-.04c.06.04.12.02.18.06h-.1c.34.1.72.17 1.03.38-.26.11-.52.17-.8.22l-.08-.01-.02.03-.12.02h-.15l.04-.02H20L20 44.5l-.19.04-.24.1c-.12.04-.23.14-.37.18l-.01-.01.08-.07-.02-.01c.1-.12.21-.19.34-.28v-.03c.03-.04.09-.06.12-.11a.34.34 0 01.1-.1l-.03-.03-.13-.01.07-.04-.03-.02.06-.05.14-.04c-.08-.02-.17.02-.26-.02.1-.16.18-.28.32-.35zm-.55.2l.1-.1v.03l-.02.04-.05.04-.03-.01zm.7-.61l-.03-.02.02-.02c-.1.1-.28.16-.37.3-.07.11-.12.24-.26.28l-.01-.03c-.35.2-.61.45-.88.73l-.02-.02c.15-.18.26-.35.37-.53.15-.07.27-.18.4-.29.19-.2.39-.36.63-.46.1-.03.21-.01.3.02l-.15.04z" fill="#164194"/><path d="M21.63 45.18c.07 0 .13-.05.21-.06.17-.06.3-.19.47-.24l.06.01c.11-.08.22-.18.37-.15l.01.01.03-.01-.13.1.01.01c.06-.01.1-.05.15-.08l-.01.04c-.21.14-.53.47-.53.47h-1.55s.44-.08.66-.1a.7.7 0 00.25 0z" fill="#000"/><path d="M26.13 44.66c.03-.09.06-.16.01-.24-.06-.1.08-.12.13-.2.03-.05-.02-.08-.03-.13l-.08-.04c.08-.03.21-.1.15-.2-.03-.06-.09-.14-.03-.2.08-.04.2-.02.24-.1.07-.12-.07-.21-.13-.33-.03-.07-.08-.1-.12-.16-.05-.07-.11-.14-.13-.23-.03-.08.02-.15.02-.23.02-.15-.03-.32-.08-.47l-.07-.24-.06-.13v-.07l.13-.1c.03-.06.02-.13-.04-.16-.08-.03-.08.07-.12.1h-.03l.03-.07-.02-.03-.1-.03c-.11-.15-.28-.22-.45-.28l.14.02c.08.01.17.01.24-.02.06-.02.06-.1.1-.15l-.04-.14a.97.97 0 00-.28-.18h5.44v4.65h-6.42s.18-.4.38-.53l.17-.04c.2 0 .38.05.58.07l.07.02c.06.02.16.02.22-.01s.15-.07.18-.15z" fill="#E30613"/><path d="M25.69 42.58h-.2l-.26.06c.08-.04.14-.08.22-.1.06-.01.1-.04.16-.04.08-.01.14-.03.2-.01.06.02.15.02.17.05.03.06-.03.13-.1.17l.02.05-.07.03-.06.07.01.03c-.05.05.03.15-.05.18a.8.8 0 01-.25 0l.13-.03V43l-.03-.01-.01.01-.03-.04c-.06.01-.12-.03-.17-.07l.1-.02.07-.06h.03c.07-.09.21-.12.23-.2l-.11-.03z" fill="#9D9D9C"/></svg>